<svg xmlns="http://www.w3.org/2000/svg" viewBox="0 0 846 307" xml:space="preserve">
<!-- First U -->
   <path fill="#31426F" d="M819.3 179c-.2 16.3-4 31.1-13.8 43.9-10.9 14.3-25.8 22.3-43.2 25.4-21.8 4-43.1 3-63.3-7-18.4-9.2-28.6-24.4-32-44.3-.9-5.6-1.3-11.3-1.3-16.9-.1-40-.1-80-.1-120 0-.8.1-1.6.2-2.9h41.3v116.7c0 4.9 0 10 1.4 14.8 3.9 17.3 17 26.5 35.8 25.7 21.3-1 33.4-12.7 33.7-34 .4-39.2.2-78.3.2-117.5v-5.7h41.1z"/>
 <!-- C -->
  <path fill="#31426F" d="M636 198c0 .5.1.9-.4 1.7-.7 2.4-1.1 4.4-1.4 6.4-3.6 14.9-13 25.9-26 32.6-32.9 16.9-66.1 16.4-97.6-3.6-18.5-11.7-26.1-30.1-26.4-51.6-.3-20.4-.4-41 0-61.4.6-35.5 24.5-61.7 60.5-67.1 21.5-3.2 42.1-1.2 61.6 9.2 21.6 11.5 33.9 35.4 30.4 59.4h-38.5q-.15-2.4-.3-4.5c-.7-13.1-7-22.4-19.3-27.1-13.9-5.3-27.4-4.5-40 3.8-8.6 5.7-12.7 14-12.8 24.1-.2 20.5.1 41-.1 61.5-.2 18.8 13.6 32.1 33.8 33.5 14.4.9 27.1-3 35.7-16.7.7-1.1.8-1.8.9-2.6 0 0 0-.5.3-.4.4.1.6.2.7.2-.2-.2-.4-.5-.6-.7 0 0-.1-.3.3-.6 1.2-2 2.6-3.9 2.4-5.6-.4-3.7.3-6.3 4.5-6.5 7.4-.4 14.8-.9 22.2-.8 4.7.1 10.4-.4 11.1 6.8 0 .8 0 1.5-.3 2.9-.4 2.8-.5 5-.7 7.1 M637.1 187.5c-.8-6.7-6.5-6.2-11.2-6.3-7.4-.1-14.8.4-22.2.8-4.2.2-4.9 2.8-4.5 6.5.2 1.7-1.2 3.6-2.3 5.5.3-4.5.9-9 1.6-13.8h38.7c0 2.4 0 4.6-.1 7.3m-2.6 18.3c0-1.7.4-3.7 1-5.7 0 1.8-.4 3.6-1 5.7m1.8-8.1c-.1-1.8 0-4 .3-6.4.1 1.8 0 4-.3 6.4m-40.4-1.9c.1.6 0 1.3-.5 2.1-.1-.6.1-1.2.5-2.1m.6-1.1c.2.2.4.5.6.7-.1 0-.3-.1-.5-.4-.1-.2-.1-.3-.1-.3"/>
 <!-- Second U -->
 <path fill="#31426F" d="M455 179c-.2 16.3-4 31.1-13.8 43.9-10.9 14.3-25.8 22.3-43.2 25.4-21.8 4-43.1 3-63.3-7-18.4-9.2-28.6-24.4-32-44.3-.9-5.6-1.3-11.3-1.3-16.9-.1-40-.1-80-.1-120 0-.8.1-1.6.2-2.9h41.3v116.7c0 4.9 0 10 1.4 14.8 3.9 17.3 17 26.5 35.8 25.7 21.3-1 33.4-12.7 33.7-34 .4-39.2.2-78.3.2-117.5v-5.7h41.1z"/>
 <!-- Oval -->
  <path fill="#31426F" d="M44.6 54.6C87.7 7.5 156.2 4.1 203 46.9c21.4 19.6 33.4 44.6 34.6 73.6 1 24.4 1 49-.9 73.4-2.1 26.7-14.6 49.4-34.8 67-37.5 32.6-79.7 38.6-124.2 16.9-34.9-17.1-55.8-46.5-59.3-85.5-2.4-25.7-1.6-51.9-.3-77.8C19.2 91.8 29.4 72 44.6 54.6m40.8-5.8c-1.6 1-3.2 1.8-4.7 2.8C54.9 68.1 40.3 91.7 38.6 122c-1.3 21.2 0 42.6.3 63.9.1 4.2.7 8.4 1.6 12.4 10.7 47 53.2 75.9 101.2 68.8 39.5-5.8 71.4-39 74.2-78.8 1.5-21.1 1-42.3.6-63.5-.1-7.8-1.5-16-3.8-23.5-17-53.8-75.9-78.3-127.3-52.5"/>
  <!-- Mount -->
  <path fill="#31426F" d="M104.9 153.9c6.8-3.9 13.2-7.8 19.8-11.3 1.5-.8 4.2-.9 5.7-.1 23 13 45.8 26.3 68.7 39.6 1.2.6 2.3 1.6 4.6 3.3H53.2c-.2-.4-.4-.8-.7-1.2 17.4-10.1 34.7-20.1 52.4-30.3"/>
<!-- Upper line -->
  <path fill="#31426F" d="M58.9 213c-.3-.4-.6-.9-.7-1.8-.2-1.1-.7-1.6-1.2-2.2-.2-.5-.5-1-.6-2 .1-4.8 2.7-5.1 6.1-5.1 43.3.1 86.6.1 129.9.1h4.7c.8 2 1.3 3.5 1.9 5-.3.8-.5 1.6-1.3 2.8-1.2 2.1-1.9 3.8-2.6 5.6-.5 1.1-1.1 2.1-2.3 3.4-41.7.2-82.6.2-123.5.2-2.1 0-4.2-.7-6.4-1.3-1.5-1.8-2.7-3.2-4-4.7 M199.2 206.7c-.8-1.2-1.3-2.7-2.1-4.7h-4.7c-43.3 0-86.6 0-129.9-.1-3.4 0-6 .3-6.1 4.8-.9-1.6-1.6-3.4-2.4-5.5h147.2c-.6 1.9-1.2 3.6-2 5.5M63 218c2.1.3 4.2 1 6.3 1h123.2c-1 .3-2.5 1-4 1h-122c-1.5 0-3.1-.7-4.4-1.5.4-.5.7-.5.9-.5m132.4-2.8q.6-2.4 2.1-5.1c-.4 1.6-1.1 3.2-2.1 5.1m-132.5 2.5c-.1.3-.4.3-.9.4-1.3-1.4-2.2-2.9-3.1-4.7 1.3 1.1 2.5 2.5 4 4.3m-5.9-8.4c.5.3 1 .8 1.2 1.6-.6-.4-.9-.8-1.2-1.6"/>
<!-- Lower line -->  
  <path fill="#31426F" d="M165.6 245.6c-30 15.4-66.2 11.5-89.4-9.7h102.1c.2.2.4.5.5.8-4.3 2.9-8.6 5.8-13.2 8.9"/>
<!-- Cross -->
  <path fill="#31426F" d="M133.8 82.7c1.4 1 2.7 2 4.1 2 3.8.1 7.6.1 11.6.1v12.6h-15.6v15.4h-12.3V97.7h-15.7V84.9h15.5V69.2h12.4z"/>
</svg>